<svg xmlns="http://www.w3.org/2000/svg" width="47.111" height="49.785" viewBox="0 0 47.111 49.785"><path d="M-817,60a10,10,0,0,1-9.105-5.86h33.976a1.464,1.464,0,0,1,1.463,1.462v1.463A5.815,5.815,0,0,1-791.458,60Zm-9.927-8.785A10.093,10.093,0,0,1-827,50V42.441h33.409a4.392,4.392,0,0,1,4.387,4.387,4.392,4.392,0,0,1-4.387,4.388Zm20.744-11.67a3.037,3.037,0,0,1-3.036-3.036V14.251a3.036,3.036,0,0,1,3.036-3.035h22.259a3.035,3.035,0,0,1,3.035,3.035V36.509a3.036,3.036,0,0,1-3.035,3.036Zm2.023-15.935v3.542a.761.761,0,0,0,.759.759h5.818v5.818a.761.761,0,0,0,.759.759h3.541a.761.761,0,0,0,.759-.759V27.91h5.818a.761.761,0,0,0,.759-.759V23.61a.76.76,0,0,0-.759-.759h-5.818V17.033a.761.761,0,0,0-.759-.759h-3.541a.761.761,0,0,0-.759.759v5.818H-803.4A.76.76,0,0,0-804.16,23.61Zm-7.81,15.907H-827V25.971q.784-.485,1.615-.919A27.8,27.8,0,0,1-812.6,21.968c.16,0,.324,0,.487,0v4.466a1.454,1.454,0,0,0-.487-.084,1.464,1.464,0,0,0-1.462,1.463A1.464,1.464,0,0,0-812.6,29.28a1.46,1.46,0,0,0,.487-.083v9.244a4.036,4.036,0,0,0,.146,1.075h0Zm-13.793-8.774A1.464,1.464,0,0,0-824.3,32.2a1.464,1.464,0,0,0,1.463-1.462A1.464,1.464,0,0,0-824.3,29.28,1.464,1.464,0,0,0-825.764,30.742Z" transform="translate(827.5 -10.716)" fill="#4d818c" stroke="rgba(0,0,0,0)" stroke-miterlimit="10" stroke-width="1" opacity="0.25"/></svg>